<?xml version="1.0" encoding="UTF-8" standalone="no"?>
<svg
   xmlns:dc="http://purl.org/dc/elements/1.1/"
   xmlns:cc="http://creativecommons.org/ns#"
   xmlns:rdf="http://www.w3.org/1999/02/22-rdf-syntax-ns#"
   xmlns:svg="http://www.w3.org/2000/svg"
   xmlns="http://www.w3.org/2000/svg"
   xmlns:sodipodi="http://sodipodi.sourceforge.net/DTD/sodipodi-0.dtd"
   xmlns:inkscape="http://www.inkscape.org/namespaces/inkscape"
   enable-background="new 0 0 40 40"
   id="Слой_1"
   version="1.1"
   viewBox="0 0 40 40"
   xml:space="preserve"
   sodipodi:docname="designs_in_trash.svg"
   inkscape:version="1.0.1 (3bc2e813f5, 2020-09-07)"><metadata
     id="metadata2324"><rdf:RDF><cc:Work
         rdf:about=""><dc:format>image/svg+xml</dc:format><dc:type
           rdf:resource="http://purl.org/dc/dcmitype/StillImage" /><dc:title></dc:title></cc:Work></rdf:RDF></metadata><defs
     id="defs2322" /><sodipodi:namedview
     pagecolor="#ffffff"
     bordercolor="#666666"
     borderopacity="1"
     objecttolerance="10"
     gridtolerance="10"
     guidetolerance="10"
     inkscape:pageopacity="0"
     inkscape:pageshadow="2"
     inkscape:window-width="1920"
     inkscape:window-height="1017"
     id="namedview2320"
     showgrid="false"
     inkscape:zoom="21.7"
     inkscape:cx="20"
     inkscape:cy="10.78341"
     inkscape:window-x="1912"
     inkscape:window-y="2"
     inkscape:window-maximized="1"
     inkscape:current-layer="g2301" /><g
     id="g2309"><path
       d="M12.9,35.1c-0.6,0-1-0.4-1-1V17.4c0-0.6,0.4-1,1-1s1,0.4,1,1v16.7C13.9,34.6,13.4,35.1,12.9,35.1z"
       id="path2307" /></g><g
     id="g2313"><path
       d="M26.9,35.1c-0.6,0-1-0.4-1-1V17.4c0-0.6,0.4-1,1-1s1,0.4,1,1v16.7C27.9,34.6,27.4,35.1,26.9,35.1z"
       id="path2311" /></g><g
     id="g2317"><path
       d="M19.9,35.1c-0.6,0-1-0.4-1-1V17.4c0-0.6,0.4-1,1-1s1,0.4,1,1v16.7C20.9,34.6,20.4,35.1,19.9,35.1z"
       id="path2315" /></g><g
     id="g2301"><path
       style="fill:#969696;stroke:none;stroke-width:1px;stroke-linecap:butt;stroke-linejoin:miter;stroke-opacity:1;fill-opacity:1"
       d="M 8.9861751,14.792627 5.1612903,1.2903226 18.986175,0.2764977 33.456221,2.0276498 32.211982,14.562212 Z"
       id="path2897" /><path
       style="fill:#ffffff;stroke:#000000;stroke-width:1px;stroke-linecap:butt;stroke-linejoin:miter;stroke-opacity:1;fill-opacity:1"
       d="M 13.640553,13.456221 16.221198,0.50691244 24.83871,3.7327189 22.211982,14.792627 13.59447,14.516129 Z"
       id="path2889" /><path
       style="fill:#ffffff;stroke:#000000;stroke-width:1px;stroke-linecap:butt;stroke-linejoin:miter;stroke-opacity:1;fill-opacity:1"
       d="M 10.322581,1.6589862 3.1797235,4.2396313 7.5115207,15.16129 18.294931,15.069124 11.889401,1.1059908 Z"
       id="path2891" /><path
       style="fill:#ffffff;stroke:#000000;stroke-width:1px;stroke-linecap:butt;stroke-linejoin:miter;stroke-opacity:1;fill-opacity:1"
       d="M 32.35023,13.548387 C 32.396313,13.179724 36.267281,2.3041475 36.267281,2.3041475 L 33.410138,1.2442396 28.43318,14.562212 h 3.778802 z"
       id="path2893" /><path
       style="fill:#ffffff;stroke:#000000;stroke-width:1px;stroke-linecap:butt;stroke-linejoin:miter;stroke-opacity:1;fill-opacity:1"
       d="M 23.087558,14.470046 22.304147,0.23041475 31.152074,0.87557604 30.875576,15.023041 Z"
       id="path2895" /><path
       d="M28,40H11.8c-3.3,0-5.9-2.7-5.9-5.9V16c0-0.6,0.4-1,1-1s1,0.4,1,1v18.1c0,2.2,1.8,3.9,3.9,3.9H28c2.2,0,3.9-1.8,3.9-3.9V16   c0-0.6,0.4-1,1-1s1,0.4,1,1v18.1C33.9,37.3,31.2,40,28,40z"
       id="path2299"
       style="fill:#000000;fill-opacity:1" /><rect
       style="fill:#000000;fill-rule:evenodd;stroke-width:1;fill-opacity:1"
       id="rect2887"
       width="28.014999"
       height="1.9815668"
       x="5.9020524"
       y="13.640553" /></g></svg>
