<?xml version="1.0" encoding="UTF-8" standalone="no"?>
<svg
   xmlns:dc="http://purl.org/dc/elements/1.1/"
   xmlns:cc="http://creativecommons.org/ns#"
   xmlns:rdf="http://www.w3.org/1999/02/22-rdf-syntax-ns#"
   xmlns:svg="http://www.w3.org/2000/svg"
   xmlns="http://www.w3.org/2000/svg"
   xmlns:sodipodi="http://sodipodi.sourceforge.net/DTD/sodipodi-0.dtd"
   xmlns:inkscape="http://www.inkscape.org/namespaces/inkscape"
   version="1.1"
   id="Capa_1"
   x="0px"
   y="0px"
   width="36.334px"
   height="36.334px"
   viewBox="0 0 36.334 36.334"
   style="enable-background:new 0 0 36.334 36.334;"
   xml:space="preserve"
   sodipodi:docname="folders_outline.svg"
   inkscape:version="1.0.1 (3bc2e813f5, 2020-09-07)"><metadata
   id="metadata913"><rdf:RDF><cc:Work
       rdf:about=""><dc:format>image/svg+xml</dc:format><dc:type
         rdf:resource="http://purl.org/dc/dcmitype/StillImage" /><dc:title></dc:title></cc:Work></rdf:RDF></metadata><defs
   id="defs911"><inkscape:path-effect
     effect="fillet_chamfer"
     id="path-effect920"
     is_visible="true"
     lpeversion="1"
     satellites_param="F,0,0,1,0,0,0,1 @ F,0,0,1,0,0,0,1 @ F,0,0,1,0,0,0,1 @ F,0,0,1,0,0,0,1 @ F,0,0,1,0,0,0,1 @ F,0,0,1,0,0,0,1 @ F,0,0,1,0,0,0,1 @ F,0,0,1,0,0,0,1 @ F,0,0,1,0,0,0,1 @ F,0,0,1,0,1.0898405,0,1 @ F,0,1,1,0,1.0898405,0,1 @ F,0,0,1,0,0,0,1"
     unit="px"
     method="auto"
     mode="F"
     radius="0"
     chamfer_steps="1"
     flexible="false"
     use_knot_distance="true"
     apply_no_radius="true"
     apply_with_radius="true"
     only_selected="false"
     hide_knots="false" /><inkscape:path-effect
     effect="fillet_chamfer"
     id="path-effect918"
     is_visible="true"
     lpeversion="1"
     satellites_param="F,0,1,1,0,0.84767892,0,1 @ F,0,0,1,0,0.84767892,0,1 @ F,0,1,1,0,0.84767892,0,1 @ F,0,1,1,0,0.84767892,0,1 @ F,0,1,1,0,0.84767892,0,1"
     unit="px"
     method="auto"
     mode="F"
     radius="0"
     chamfer_steps="1"
     flexible="false"
     use_knot_distance="true"
     apply_no_radius="true"
     apply_with_radius="true"
     only_selected="false"
     hide_knots="false" /></defs><sodipodi:namedview
   pagecolor="#ffffff"
   bordercolor="#666666"
   borderopacity="1"
   objecttolerance="10"
   gridtolerance="10"
   guidetolerance="10"
   inkscape:pageopacity="0"
   inkscape:pageshadow="2"
   inkscape:window-width="1920"
   inkscape:window-height="1017"
   id="namedview909"
   showgrid="false"
   inkscape:zoom="8.7806469"
   inkscape:cx="45.662225"
   inkscape:cy="20.62165"
   inkscape:window-x="1912"
   inkscape:window-y="2"
   inkscape:window-maximized="1"
   inkscape:current-layer="g876"
   inkscape:snap-midpoints="true"
   inkscape:snap-to-guides="false"
   inkscape:snap-grids="false"
   showguides="false"
   inkscape:document-rotation="0" />
<g
   id="g876">
	<path
   id="path874"
   style="fill:none;fill-opacity:1;stroke:#000000;stroke-width:1.4;stroke-miterlimit:4;stroke-dasharray:none;stroke-opacity:1"
   d="m 19.984699,2.2581278 c -0.56474,3.026e-4 -1.108173,0.215191 -1.519833,0.6009845 l -1.869838,1.751036 c -0.41166,0.385794 -0.955093,0.600682 -1.519834,0.600985 H 4.5435616 c -2.0051217,0 -3.63246699,1.622292 -3.63246699,3.624786 V 22.262101 c 0,2.000882 1.62734529,3.624786 3.63246699,3.624786 H 26.607961 c 2.005929,0 3.632467,-1.623904 3.632467,-3.624786 V 11.790497 8.8359193 5.8829143 c 0,-2.002493 -1.626538,-3.6247865 -3.632467,-3.6247865 z"
   sodipodi:nodetypes="ccccssssssccssc" />
<path
   id="path874-1"
   style="fill:#ffffff;fill-opacity:1;stroke:#000000;stroke-width:1.4;stroke-miterlimit:4;stroke-dasharray:none;stroke-opacity:1"
   d="m 22.744716,5.7881157 c -0.56474,3.02e-4 -1.108173,0.215191 -1.519833,0.600984 l -1.869838,1.751036 c -0.41166,0.3857937 -0.955093,0.6006817 -1.519834,0.6009847 H 7.3035794 c -2.005122,0 -3.632467,1.6222916 -3.632467,3.6247856 v 13.426182 c 0,2.000882 1.627345,3.624786 3.632467,3.624786 H 29.367978 c 2.005929,0 3.632467,-1.623904 3.632467,-3.624786 V 15.320484 12.365906 9.4129014 c 0,-2.0024927 -1.626538,-3.6247857 -3.632467,-3.6247857 z"
   sodipodi:nodetypes="ccccssssssccssc" /><path
   id="path874-1-4"
   style="fill:#ffffff;fill-opacity:1;stroke:#000000;stroke-width:1.4;stroke-miterlimit:4;stroke-dasharray:none;stroke-opacity:1"
   d="m 25.81966,9.5963434 c -0.56474,3.02e-4 -1.108173,0.215191 -1.519833,0.6009836 l -1.869838,1.751036 c -0.41166,0.385794 -0.955093,0.600682 -1.519834,0.600985 H 10.378523 c -2.0051215,0 -3.6324665,1.622292 -3.6324665,3.624786 v 13.426182 c 0,2.000882 1.627345,3.624786 3.6324665,3.624786 h 22.064399 c 2.005929,0 3.632467,-1.623904 3.632467,-3.624786 V 19.128712 16.174134 13.221129 c 0,-2.002493 -1.626538,-3.6247856 -3.632467,-3.6247856 z"
   sodipodi:nodetypes="ccccssssssccssc" /></g>
<g
   id="g878">
</g>
<g
   id="g880">
</g>
<g
   id="g882">
</g>
<g
   id="g884">
</g>
<g
   id="g886">
</g>
<g
   id="g888">
</g>
<g
   id="g890">
</g>
<g
   id="g892">
</g>
<g
   id="g894">
</g>
<g
   id="g896">
</g>
<g
   id="g898">
</g>
<g
   id="g900">
</g>
<g
   id="g902">
</g>
<g
   id="g904">
</g>
<g
   id="g906">
</g>
</svg>
