<?xml version="1.0" encoding="UTF-8" standalone="no"?>
<svg
   xmlns:dc="http://purl.org/dc/elements/1.1/"
   xmlns:cc="http://creativecommons.org/ns#"
   xmlns:rdf="http://www.w3.org/1999/02/22-rdf-syntax-ns#"
   xmlns:svg="http://www.w3.org/2000/svg"
   xmlns="http://www.w3.org/2000/svg"
   xmlns:sodipodi="http://sodipodi.sourceforge.net/DTD/sodipodi-0.dtd"
   xmlns:inkscape="http://www.inkscape.org/namespaces/inkscape"
   version="1.1"
   id="Capa_1"
   x="0px"
   y="0px"
   width="36.334px"
   height="36.334px"
   viewBox="0 0 36.334 36.334"
   style="enable-background:new 0 0 36.334 36.334;"
   xml:space="preserve"
   sodipodi:docname="folder_category.svg"
   inkscape:version="1.0.1 (3bc2e813f5, 2020-09-07)"><metadata
   id="metadata913"><rdf:RDF><cc:Work
       rdf:about=""><dc:format>image/svg+xml</dc:format><dc:type
         rdf:resource="http://purl.org/dc/dcmitype/StillImage" /><dc:title></dc:title></cc:Work></rdf:RDF></metadata><defs
   id="defs911"><inkscape:path-effect
     effect="fillet_chamfer"
     id="path-effect920"
     is_visible="true"
     lpeversion="1"
     satellites_param="F,0,0,1,0,0,0,1 @ F,0,0,1,0,0,0,1 @ F,0,0,1,0,0,0,1 @ F,0,0,1,0,0,0,1 @ F,0,0,1,0,0,0,1 @ F,0,0,1,0,0,0,1 @ F,0,0,1,0,0,0,1 @ F,0,0,1,0,0,0,1 @ F,0,0,1,0,0,0,1 @ F,0,0,1,0,1.0898405,0,1 @ F,0,1,1,0,1.0898405,0,1 @ F,0,0,1,0,0,0,1"
     unit="px"
     method="auto"
     mode="F"
     radius="0"
     chamfer_steps="1"
     flexible="false"
     use_knot_distance="true"
     apply_no_radius="true"
     apply_with_radius="true"
     only_selected="false"
     hide_knots="false" /><inkscape:path-effect
     effect="fillet_chamfer"
     id="path-effect918"
     is_visible="true"
     lpeversion="1"
     satellites_param="F,0,1,1,0,0.84767892,0,1 @ F,0,0,1,0,0.84767892,0,1 @ F,0,1,1,0,0.84767892,0,1 @ F,0,1,1,0,0.84767892,0,1 @ F,0,1,1,0,0.84767892,0,1"
     unit="px"
     method="auto"
     mode="F"
     radius="0"
     chamfer_steps="1"
     flexible="false"
     use_knot_distance="true"
     apply_no_radius="true"
     apply_with_radius="true"
     only_selected="false"
     hide_knots="false" /></defs><sodipodi:namedview
   pagecolor="#ffffff"
   bordercolor="#666666"
   borderopacity="1"
   objecttolerance="10"
   gridtolerance="10"
   guidetolerance="10"
   inkscape:pageopacity="0"
   inkscape:pageshadow="2"
   inkscape:window-width="1920"
   inkscape:window-height="1017"
   id="namedview909"
   showgrid="false"
   inkscape:zoom="8.7806469"
   inkscape:cx="45.662225"
   inkscape:cy="20.62165"
   inkscape:window-x="1912"
   inkscape:window-y="2"
   inkscape:window-maximized="1"
   inkscape:current-layer="g876"
   inkscape:snap-midpoints="true"
   inkscape:snap-to-guides="false"
   inkscape:snap-grids="false"
   showguides="false" />
<g
   id="g876">
	<path
   d="m 0,11.666 v 16.668 c 0,2.484 2.016,4.5 4.5,4.5 h 27.334 c 2.485,0 4.5,-2.016 4.5,-4.5 v -13 V 11.666 8 c 0,-2.486 -2.015,-4.5 -4.5,-4.5 H 23.629497 A 2.7524705,2.7524705 158.39891 0 0 21.745225,4.2460773 L 19.43049,6.4199227 A 2.7524705,2.7524705 158.39891 0 1 17.546218,7.166 H 4.5 C 2.016,7.166 0,9.18 0,11.666 Z"
   id="path874"
   sodipodi:nodetypes="sssssccssccss"
   style="fill:#7a7a7a;fill-opacity:1"
   inkscape:path-effect="#path-effect920"
   inkscape:original-d="m 0,11.666 v 16.668 c 0,2.484 2.016,4.5 4.5,4.5 h 27.334 c 2.485,0 4.5,-2.016 4.5,-4.5 v -13 V 11.666 8 c 0,-2.486 -2.015,-4.5 -4.5,-4.5 H 22.539656 L 18.636059,7.166 H 4.5 C 2.016,7.166 0,9.18 0,11.666 Z" />
<path
   id="rect915"
   style="fill:#ffffff;fill-opacity:1;fill-rule:evenodd;stroke-width:1"
   d="m 9.2851498,22.841751 a 1.0854179,1.0854179 0 0 0 0.01415,1.520823 l 5.5527762,5.552777 a 1.0854179,1.0854179 0 0 0 1.534973,10e-7 L 26.877198,19.425201 a 3.0331475,3.0331475 0 0 0 0.873589,-1.849748 L 28.311371,11.8759 a 0.89092853,0.89092853 0 0 0 -0.972622,-0.972621 l -5.701323,0.558815 A 3.0331468,3.0331468 0 0 0 19.78945,12.337451 L 9.2992968,22.827604 a 1.0854179,1.0854179 0 0 0 -0.01415,0.01415 z m 4.5819242,0.245806 a 1.7443696,1.7443696 0 0 1 2.468689,0 1.7443696,1.7443696 0 0 1 -0.0018,2.466921 1.7443696,1.7443696 0 0 1 -2.465151,-2e-6 1.7443696,1.7443696 0 0 1 -0.0018,-2.466919 z" /></g>
<g
   id="g878">
</g>
<g
   id="g880">
</g>
<g
   id="g882">
</g>
<g
   id="g884">
</g>
<g
   id="g886">
</g>
<g
   id="g888">
</g>
<g
   id="g890">
</g>
<g
   id="g892">
</g>
<g
   id="g894">
</g>
<g
   id="g896">
</g>
<g
   id="g898">
</g>
<g
   id="g900">
</g>
<g
   id="g902">
</g>
<g
   id="g904">
</g>
<g
   id="g906">
</g>
</svg>
