<?xml version="1.0" encoding="UTF-8" standalone="no"?>
<svg
   xmlns:dc="http://purl.org/dc/elements/1.1/"
   xmlns:cc="http://creativecommons.org/ns#"
   xmlns:rdf="http://www.w3.org/1999/02/22-rdf-syntax-ns#"
   xmlns:svg="http://www.w3.org/2000/svg"
   xmlns="http://www.w3.org/2000/svg"
   xmlns:sodipodi="http://sodipodi.sourceforge.net/DTD/sodipodi-0.dtd"
   xmlns:inkscape="http://www.inkscape.org/namespaces/inkscape"
   height="1792"
   viewBox="0 0 1792 1792"
   width="1792"
   version="1.1"
   id="svg2695"
   sodipodi:docname="shortcut.svg"
   inkscape:version="1.0.1 (3bc2e813f5, 2020-09-07)">
  <metadata
     id="metadata2701">
    <rdf:RDF>
      <cc:Work
         rdf:about="">
        <dc:format>image/svg+xml</dc:format>
        <dc:type
           rdf:resource="http://purl.org/dc/dcmitype/StillImage" />
      </cc:Work>
    </rdf:RDF>
  </metadata>
  <defs
     id="defs2699" />
  <sodipodi:namedview
     pagecolor="#ffffff"
     bordercolor="#666666"
     borderopacity="1"
     objecttolerance="10"
     gridtolerance="10"
     guidetolerance="10"
     inkscape:pageopacity="0"
     inkscape:pageshadow="2"
     inkscape:window-width="1920"
     inkscape:window-height="1017"
     id="namedview2697"
     showgrid="false"
     inkscape:zoom="0.484375"
     inkscape:cx="896"
     inkscape:cy="896"
     inkscape:window-x="-8"
     inkscape:window-y="-8"
     inkscape:window-maximized="1"
     inkscape:current-layer="svg2695" />
  <path
     d="m 1380.8172,804.79382 0,304.43798 c 0,70.3569 -24.9796,130.5151 -74.939,180.4744 -49.9594,49.9594 -110.1175,74.9391 -180.4745,74.9391 H 387.54253 c -70.35696,0 -130.51511,-24.9797 -180.47446,-74.9391 -49.95936,-49.9593 -74.93903,-110.1175 -74.93903,-180.4744 l 0,-543.79679 c 0,-70.35697 24.97967,-130.51512 74.93903,-180.47448 49.95935,-49.95935 110.1175,-74.93902 180.47446,-74.93902 h 415.44359 c 8.27729,0 15.0765,2.66055 20.39762,7.98167 5.32111,5.32112 7.98167,12.12031 7.98167,20.3976 v 56.75857 c 0,8.27728 -2.66056,15.07648 -7.98167,20.39759 -5.32112,5.32112 -12.12033,7.98167 -20.39762,7.98167 H 387.54253 c -39.02151,0 -72.42628,13.89403 -100.21432,41.68207 -27.78805,27.78804 -41.68207,61.19282 -41.68207,100.21433 l 0,543.79679 c 0,39.0215 13.89402,72.4263 41.68207,100.2143 27.78804,27.788 61.19281,41.682 100.21432,41.682 h 737.86117 c 39.0215,0 72.4264,-13.894 100.2143,-41.682 27.7882,-27.788 41.6822,-61.1928 41.6822,-100.2143 l 0,-304.43798 c 0,-8.2773 2.6605,-15.0764 7.9816,-20.39757 5.3211,-5.32112 12.1203,-7.98169 20.3975,-7.98169 h 56.7587 c 8.2773,0 15.0764,2.66057 20.3975,7.98169 5.3211,5.32117 7.9817,12.12027 7.9817,20.39757 z m 160.3855,-652.86305 v 454.06844 c 0,15.37211 -5.6167,28.67489 -16.8501,39.90836 -11.2335,11.23346 -24.5363,16.85019 -39.9084,16.85019 -15.3722,0 -28.6749,-5.61673 -39.9084,-16.85019 L 1288.4497,489.82154 710.2221,1068.0495 c -5.91236,5.9123 -12.71157,8.8684 -20.39762,8.8684 -7.68605,0 -14.48525,-2.9561 -20.3976,-8.8684 L 568.3257,966.94829 c -5.91237,-5.91237 -8.86852,-12.7117 -8.86852,-20.3977 0,-7.686 2.95617,-14.4852 8.86852,-20.3977 L 1146.5534,347.92516 990.46747,191.83913 c -11.23346,-11.23347 -16.85024,-24.53625 -16.85024,-39.90836 0,-15.37211 5.61678,-28.67489 16.85024,-39.90836 11.23343,-11.23346 24.53623,-16.85019 39.90823,-16.85019 h 454.0685 c 15.3721,0 28.6749,5.61673 39.9084,16.85019 11.2334,11.23347 16.8501,24.53625 16.8501,39.90836 z"
     id="path2693"
     style="stroke-width:1"
     sodipodi:nodetypes="ssssssssssssssssssssssssssssssssssscccscsscccssssss" />
</svg>
