<?xml version="1.0" encoding="UTF-8" standalone="no"?>
<svg
   xmlns:dc="http://purl.org/dc/elements/1.1/"
   xmlns:cc="http://creativecommons.org/ns#"
   xmlns:rdf="http://www.w3.org/1999/02/22-rdf-syntax-ns#"
   xmlns:svg="http://www.w3.org/2000/svg"
   xmlns="http://www.w3.org/2000/svg"
   xmlns:sodipodi="http://sodipodi.sourceforge.net/DTD/sodipodi-0.dtd"
   xmlns:inkscape="http://www.inkscape.org/namespaces/inkscape"
   version="1.1"
   id="Capa_1"
   x="0px"
   y="0px"
   width="36.334px"
   height="36.334px"
   viewBox="0 0 36.334 36.334"
   style="enable-background:new 0 0 36.334 36.334;"
   xml:space="preserve"
   sodipodi:docname="tags_flat.svg"
   inkscape:version="1.0.1 (3bc2e813f5, 2020-09-07)"><metadata
   id="metadata913"><rdf:RDF><cc:Work
       rdf:about=""><dc:format>image/svg+xml</dc:format><dc:type
         rdf:resource="http://purl.org/dc/dcmitype/StillImage" /><dc:title></dc:title></cc:Work></rdf:RDF></metadata><defs
   id="defs911"><inkscape:path-effect
     effect="fillet_chamfer"
     id="path-effect920"
     is_visible="true"
     lpeversion="1"
     satellites_param="F,0,0,1,0,0,0,1 @ F,0,0,1,0,0,0,1 @ F,0,0,1,0,0,0,1 @ F,0,0,1,0,0,0,1 @ F,0,0,1,0,0,0,1 @ F,0,0,1,0,0,0,1 @ F,0,0,1,0,0,0,1 @ F,0,0,1,0,0,0,1 @ F,0,0,1,0,0,0,1 @ F,0,0,1,0,1.0898405,0,1 @ F,0,1,1,0,1.0898405,0,1 @ F,0,0,1,0,0,0,1"
     unit="px"
     method="auto"
     mode="F"
     radius="0"
     chamfer_steps="1"
     flexible="false"
     use_knot_distance="true"
     apply_no_radius="true"
     apply_with_radius="true"
     only_selected="false"
     hide_knots="false" /><inkscape:path-effect
     effect="fillet_chamfer"
     id="path-effect918"
     is_visible="true"
     lpeversion="1"
     satellites_param="F,0,1,1,0,0.84767892,0,1 @ F,0,0,1,0,0.84767892,0,1 @ F,0,1,1,0,0.84767892,0,1 @ F,0,1,1,0,0.84767892,0,1 @ F,0,1,1,0,0.84767892,0,1"
     unit="px"
     method="auto"
     mode="F"
     radius="0"
     chamfer_steps="1"
     flexible="false"
     use_knot_distance="true"
     apply_no_radius="true"
     apply_with_radius="true"
     only_selected="false"
     hide_knots="false" /></defs><sodipodi:namedview
   pagecolor="#ffffff"
   bordercolor="#666666"
   borderopacity="1"
   objecttolerance="10"
   gridtolerance="10"
   guidetolerance="10"
   inkscape:pageopacity="0"
   inkscape:pageshadow="2"
   inkscape:window-width="1920"
   inkscape:window-height="1017"
   id="namedview909"
   showgrid="false"
   inkscape:zoom="8.7806469"
   inkscape:cx="45.662225"
   inkscape:cy="24.721576"
   inkscape:window-x="1912"
   inkscape:window-y="2"
   inkscape:window-maximized="1"
   inkscape:current-layer="g876"
   inkscape:snap-midpoints="true"
   inkscape:snap-to-guides="false"
   inkscape:snap-grids="false"
   showguides="false"
   inkscape:document-rotation="0" />
<g
   id="g876">
	<path
   id="path874"
   style="fill:#9a9a9a;fill-opacity:1;stroke:#000000;stroke-width:1.5;stroke-miterlimit:4;stroke-dasharray:none;stroke-opacity:1"
   d="m 30.388364,10.49016 c 0.505258,0.575737 0.47668,1.549396 -0.06107,2.08093 l -5.789723,5.680243 c -0.7093,0.697144 -1.599134,1.07842 -2.517654,1.078745 L 2.6178339,19.325536 C 1.8337374,19.32547 1.1979656,18.565631 1.1978884,17.628531 L 1.1959084,5.354459 C 1.1955645,4.429038 1.8158179,3.674299 2.5900125,3.65808 c 0.00843,-8.1e-5 0.016897,-1.31e-4 0.025289,3e-6 l 19.4020775,0.0046 c 0.918079,-4.68e-4 1.807992,0.379668 2.518003,1.07559 l 5.791561,5.682915 c 0.02119,0.02209 0.04166,0.04516 0.06144,0.06905 z"
   sodipodi:nodetypes="cccccccccccccc" />
<path
   id="path874-2"
   style="fill:#c2c2c2;fill-opacity:1;stroke:#000000;stroke-width:1.5;stroke-miterlimit:4;stroke-dasharray:none;stroke-opacity:1"
   d="m 32.740604,16.534696 c 0.505258,0.575737 0.47668,1.549396 -0.06107,2.08093 l -5.789723,5.680243 c -0.7093,0.697144 -1.599134,1.07842 -2.517654,1.078745 L 4.970074,25.370114 C 4.1859772,25.370006 3.5502054,24.610167 3.5501282,23.673067 L 3.5481482,11.398994 C 3.5478043,10.473573 4.1680577,9.7188348 4.942252,9.7026158 c 0.0084,-8.1e-5 0.0169,-1.31e-4 0.02529,3e-6 l 19.402077,0.0046 c 0.918079,-4.68e-4 1.807992,0.3796682 2.518003,1.0755892 l 5.791561,5.682916 c 0.02119,0.02209 0.04166,0.04516 0.06144,0.06905 z"
   sodipodi:nodetypes="cccccccccccccc" /><path
   id="path874-5"
   style="fill:#e2e2e2;fill-opacity:1;stroke:#000000;stroke-width:1.5;stroke-miterlimit:4;stroke-dasharray:none;stroke-opacity:1"
   d="m 34.905725,22.430101 c 0.505258,0.575737 0.47668,1.549396 -0.06107,2.08093 l -5.789723,5.680242 c -0.7093,0.697144 -1.599134,1.07842 -2.517654,1.078745 L 7.1351946,31.265476 C 6.3510981,31.26541 5.7153264,30.505571 5.7152492,29.568471 L 5.7132692,17.2944 c -3.439e-4,-0.925421 0.6199094,-1.68016 1.394104,-1.696379 0.00843,-8.1e-5 0.016897,-1.31e-4 0.025289,3e-6 l 19.4020768,0.0046 c 0.918079,-4.68e-4 1.807992,0.379668 2.518003,1.07559 l 5.791561,5.682915 c 0.02119,0.02209 0.04166,0.04516 0.06144,0.06905 z"
   sodipodi:nodetypes="cccccccccccccc" /></g>
<g
   id="g878">
</g>
<g
   id="g880">
</g>
<g
   id="g882">
</g>
<g
   id="g884">
</g>
<g
   id="g886">
</g>
<g
   id="g888">
</g>
<g
   id="g890">
</g>
<g
   id="g892">
</g>
<g
   id="g894">
</g>
<g
   id="g896">
</g>
<g
   id="g898">
</g>
<g
   id="g900">
</g>
<g
   id="g902">
</g>
<g
   id="g904">
</g>
<g
   id="g906">
</g>
</svg>
